<svg xmlns="http://www.w3.org/2000/svg" width="512" height="512" style=""><rect id="backgroundrect" width="100%" height="100%" x="0" y="0" fill="none" stroke="none" data-darkreader-inline-stroke="" style="--darkreader-inline-stroke:none;"/>
 <!--! Font Awesome Pro 6.0.0 by @fontawesome - https://fontawesome.com License - https://fontawesome.com/license (Commercial License) Copyright 2022 Fonticons, Inc. -->
 
 <g class="currentLayer" style=""><title>Layer 1</title><polyline fill="none" stroke="#000000" stroke-dashoffset="" fill-rule="nonzero" marker-start="" marker-mid="" marker-end="" id="svg_2" points="-191.107421875,84.4561996459961 -184.495849609375,83.62975311279297 -182.84295654296875,82.80330657958984 -182.84295654296875,83.62975311279297 -182.84295654296875,89.41487884521484 -182.84295654296875,96.8528823852539 -182.84295654296875,104.29090118408203 -182.84295654296875,109.24958038330078 -183.66940307617188,113.3818130493164 -183.66940307617188,115.86115264892578 -184.495849609375,118.34049224853516 -185.32229614257812,122.47272491455078 -186.14874267578125,124.95206451416016 -186.97518920898438,127.43140411376953 -186.97518920898438,128.25785064697266 -187.8016357421875,129.08429718017578 " style="color: rgb(0, 0, 0); --darkreader-inline-stroke:#e8e6e3; --darkreader-inline-color:#e8e6e3;" data-darkreader-inline-stroke="" data-darkreader-inline-color="" class=""/><polyline fill="#e98a8a" stroke="#000000" stroke-dashoffset="" fill-rule="nonzero" marker-start="" marker-mid="" marker-end="" id="svg_3" points="-239.04132080078125,64.62149047851562 -239.86776733398438,65.44793701171875 -239.86776733398438,66.27438354492188 -239.86776733398438,67.100830078125 -239.86776733398438,69.58016967773438 -235.73553466796875,77.01817321777344 -232.42974853515625,82.80329895019531 -224.99172973632812,100.98512268066406 -217.5537109375,127.431396484375 -215.07437133789062,142.30743408203125 -215.07437133789062,163.7950439453125 -216.72726440429688,189.41488647460938 -220.8594970703125,212.55535888671875 -225.81817626953125,232.39007568359375 -226.64462280273438,239.82809448242188 " style="color: rgb(0, 0, 0); --darkreader-inline-fill:#e88282; --darkreader-inline-stroke:#e8e6e3; --darkreader-inline-color:#e8e6e3;" data-darkreader-inline-fill="" data-darkreader-inline-stroke="" data-darkreader-inline-color="" class=""/><path fill="#e76767" stroke="#000000" stroke-dashoffset="" fill-rule="nonzero" marker-start="" marker-mid="" marker-end="" id="svg_5" d="M253.44742941414802,162.78696558599188 C353.79530986852234,-76.98148386502623 746.9615955831654,162.78696558599188 253.44742941414802,471.06068630874097 C-240.06673675485155,162.78696558599188 153.09954895978566,-76.98148386502623 253.44742941414802,162.78696558599188 z" style="color: rgb(0, 0, 0); --darkreader-inline-fill:#871515; --darkreader-inline-stroke:#e8e6e3; --darkreader-inline-color:#e8e6e3;" data-darkreader-inline-fill="" data-darkreader-inline-stroke="" data-darkreader-inline-color="" class="selected" fill-opacity="1" opacity="0.94"/></g></svg>